<svg xmlns="http://www.w3.org/2000/svg" xml:space="preserve" style="fill-rule:evenodd;clip-rule:evenodd;stroke-linejoin:round;stroke-miterlimit:2" viewBox="0 0 800 800"><path d="M339.28 646.42C144.006 451.147 49.955 228.602 129.208 149.348c73.312-73.312 269.23 1.747 452.761 167.971-14.172-16.022-29.016-31.902-44.638-47.524C382.077 114.541 202.641 29.319 85.817 44.617c-43.961 5.755-78.3 40.094-84.058 84.055-15.298 116.823 69.925 296.259 225.18 451.514 55.377 55.377 113.824 101.817 171.411 137.976 6.533 4.102 13.223-5.001 7.378-10.034-22.331-19.223-44.561-39.82-66.448-61.708Z" style="fill:#c0adde;fill-rule:nonzero"/><path d="M460.722 153.578c195.273 195.274 289.323 417.82 210.072 497.072-73.313 73.313-269.23-1.747-452.761-167.97 14.172 16.022 29.015 31.901 44.637 47.523 155.255 155.255 334.691 240.478 451.514 225.18 43.961-5.758 78.3-40.095 84.055-84.055 15.299-116.823-69.925-296.259-225.18-451.514-55.376-55.377-113.823-101.817-171.411-137.977-6.532-4.101-13.223 5.002-7.378 10.035 22.335 19.222 44.564 39.819 66.452 61.706Z" style="fill:#c0adde;fill-rule:nonzero"/><path d="M297.505 482.295 118.472 661.328c-5.58 5.58-5.58 14.622 0 20.202a14.24 14.24 0 0 0 10.1 4.184c3.655 0 7.311-1.395 10.1-4.186l180.584-180.584-21.751-18.649Z" style="fill:#c0adde;fill-rule:nonzero"/><ellipse cx="350.002" cy="420.711" rx="284.875" ry="141.428" style="fill:#825bbe" transform="rotate(45 399.997 470.714) scale(.99999)"/><ellipse cx="350.002" cy="420.711" rx="176.572" ry="90.914" style="fill:#7247b6" transform="rotate(45 399.997 470.714) scale(.99999)"/><path d="M681.53 118.47c-5.58-5.579-14.622-5.579-20.202 0L467.244 312.555c-5.578 5.578-5.578 14.623 0 20.201 5.578 5.578 14.623 5.578 20.201 0L681.53 138.67c5.579-5.579 5.579-14.618 0-20.2Z" style="fill:#c0adde;fill-rule:nonzero"/><ellipse cx="407.145" cy="392.863" rx="86.373" ry="50.5" style="fill:#6333ae" transform="rotate(-134.999 407.146 392.865)"/></svg>