<?xml version="1.0" encoding="UTF-8" standalone="no"?>
<!DOCTYPE svg PUBLIC "-//W3C//DTD SVG 1.1//EN" "http://www.w3.org/Graphics/SVG/1.1/DTD/svg11.dtd">
<svg width="100%" height="100%" viewBox="0 0 1024 1024" version="1.1" xmlns="http://www.w3.org/2000/svg" xmlns:xlink="http://www.w3.org/1999/xlink" xml:space="preserve" xmlns:serif="http://www.serif.com/" style="fill-rule:evenodd;clip-rule:evenodd;stroke-linejoin:round;stroke-miterlimit:2;">
    <g transform="matrix(1.00707,0,0,1.00707,109.175,109.174)">
        <g>
            <path d="M339.28,646.42C144.006,451.147 49.955,228.602 129.208,149.348C202.52,76.036 398.438,151.095 581.969,317.319C567.797,301.297 552.953,285.417 537.331,269.795C382.077,114.541 202.641,29.319 85.817,44.617C41.856,50.372 7.517,84.711 1.759,128.672C-13.539,245.495 71.684,424.931 226.939,580.186C282.316,635.563 340.763,682.003 398.35,718.162C404.883,722.264 411.573,713.161 405.728,708.128C383.397,688.905 361.167,668.308 339.28,646.42Z" style="fill:rgb(192,173,222);fill-rule:nonzero;"/>
            <path d="M460.722,153.578C655.995,348.852 750.045,571.398 670.794,650.65C597.481,723.963 401.564,648.903 218.033,482.68C232.205,498.702 247.048,514.581 262.67,530.203C417.925,685.458 597.361,770.681 714.184,755.383C758.145,749.625 792.484,715.288 798.239,671.328C813.538,554.505 728.314,375.069 573.059,219.814C517.683,164.437 459.236,117.997 401.648,81.837C395.116,77.736 388.425,86.839 394.27,91.872C416.605,111.094 438.834,131.691 460.722,153.578Z" style="fill:rgb(192,173,222);fill-rule:nonzero;"/>
            <path d="M297.505,482.295L118.472,661.328C112.892,666.908 112.892,675.95 118.472,681.53C121.261,684.319 124.917,685.714 128.572,685.714C132.227,685.714 135.883,684.319 138.672,681.528L319.256,500.944L297.505,482.295Z" style="fill:rgb(192,173,222);fill-rule:nonzero;"/>
            <g transform="matrix(0.707102,0.707098,-0.707098,0.707102,450,-144.972)">
                <ellipse cx="350.002" cy="420.711" rx="284.875" ry="141.428" style="fill:rgb(130,91,190);"/>
            </g>
            <g transform="matrix(0.707102,0.707098,-0.707098,0.707102,450,-144.972)">
                <ellipse cx="350.002" cy="420.711" rx="176.572" ry="90.914" style="fill:rgb(114,71,182);"/>
            </g>
            <path d="M681.53,118.47C675.95,112.891 666.908,112.891 661.328,118.47L467.244,312.555C461.666,318.133 461.666,327.178 467.244,332.756C472.822,338.334 481.867,338.334 487.445,332.756L681.53,138.67C687.109,133.091 687.109,124.052 681.53,118.47Z" style="fill:rgb(192,173,222);fill-rule:nonzero;"/>
            <g transform="matrix(-0.7071,-0.7071,0.7071,-0.7071,417.245,958.553)">
                <ellipse cx="407.145" cy="392.863" rx="86.373" ry="50.5" style="fill:rgb(99,51,174);"/>
            </g>
        </g>
    </g>
</svg>
